<svg xmlns="http://www.w3.org/2000/svg" xmlns:xlink="http://www.w3.org/1999/xlink" viewBox="0,0,256,256" width="800px" height="800px" fill-rule="nonzero"><g fill="none" fill-rule="nonzero" stroke="none" stroke-width="none" stroke-linecap="butt" stroke-linejoin="none" stroke-miterlimit="10" stroke-dasharray="" stroke-dashoffset="0" font-family="none" font-weight="none" font-size="none" text-anchor="none" style="mix-blend-mode: normal"><path transform="scale(2.56,2.56)" d="M91.95,64.22c0,3.147 -0.868,4.943 -1.786,6.328c-2.398,3.619 -5.667,5.22 -9.692,4.78c-1.028,-0.112 -2.023,-0.519 -3.071,-0.801c-2.27,3.594 -5.381,5.805 -9.387,6.322c-4.03,0.52 -7.46,-0.912 -10.342,-3.86c-6.726,7.882 -17.388,9.653 -25.675,3.905c-2.54351,-1.76396 -4.66943,-4.18003 -6.20087,-7.025h-3.70913c-1.181,0 -2.323,-0.484 -3.133,-1.327c-0.799,-0.832 -1.214,-1.92 -1.168,-3.066c0.066,-1.668 1.207,-3.192 2.839,-3.791c0.607,-0.224 1.236,-0.304 1.872,-0.244c0.11858,-0.47916 0.34839,-0.91482 0.66009,-1.28004c-0.00301,-0.07024 -0.00571,-0.14056 -0.00809,-0.21096c-0.195,-0.163 -0.523,-0.265 -0.749,-0.232c-4.54,0.666 -9.009,-1.85 -10.936,-6.286c-0.488,-1.123 -1.363,-3.902 -0.929,-6.687c0.03939,-0.25315 0.08468,-0.50148 0.13581,-0.745h-0.43481c-0.276,0 -0.5,-0.224 -0.5,-0.5c0,-0.276 0.224,-0.5 0.5,-0.5l0.68535,0c0.10094,-0.34415 0.21475,-0.67748 0.34122,-1h-2.80457c-0.276,0 -0.5,-0.224 -0.5,-0.5c0,-0.276 0.224,-0.5 0.5,-0.5h3.2547c1.24591,-2.43166 3.31168,-4.14793 6.0803,-5.141c0.69,-0.247 1.422,-0.365 2.167,-0.482c0.503,-2.765 1.737,-5.388 3.637,-7.465c1.294,-1.415 2.736,-2.491 4.312,-3.22c3.474,-2.03 7.161,-2.193 10.945,-0.853c3.139,-10.399 12.574,-16.941 22.872,-15.422c2.5285,0.37294 4.97565,1.25531 7.20751,2.583h7.36349c0.276,0 0.5,0.224 0.5,0.5c0,0.276 -0.223,0.5 -0.5,0.5h-5.83985c0.43724,0.31529 0.86403,0.64881 1.27921,1h2.00764c0.276,0 0.5,0.224 0.5,0.5c0,0.276 -0.223,0.5 -0.5,0.5h-0.90622c0.32999,0.32135 0.65106,0.65479 0.96251,1h0.47671c0.276,0 0.5,0.224 0.5,0.5c0,0.1658 -0.08084,0.31284 -0.20522,0.40382c2.00582,2.48446 3.53862,5.50118 4.38042,8.9458c0.0026,0.00212 0.0052,0.00425 0.0078,0.00638c0.999,0.819 1.708,1.941 2.03,3.178c1.008,-0.911 2.309,-1.417 3.697,-1.417c3.056,0 5.542,2.486 5.542,5.542c0,0.083 -0.002,0.165 -0.007,0.246c2.245,0.67 3.832,2.767 3.832,5.144c0,2.47713 -1.68759,4.56811 -3.97385,5.18344c0.0535,1.80286 -0.2028,3.62612 -0.79415,5.37156c-0.229,0.676 -0.493,1.321 -0.792,1.935c2.168,1.981 3.456,4.936 3.456,8.181zM78.315,22h-2.536c-0.276,0 -0.5,-0.224 -0.5,-0.5c0,-0.276 0.224,-0.5 0.5,-0.5h2.536c0.276,0 0.5,0.224 0.5,0.5c0,0.276 -0.224,0.5 -0.5,0.5z" id="strokeMainSVG" fill="#cfcfcf" stroke="#cfcfcf" stroke-width="4" stroke-linejoin="round"></path><g transform="scale(2.56,2.56)" stroke="none" stroke-width="1" stroke-linejoin="miter"><path d="M88.494,56.039c0.299,-0.614 0.563,-1.259 0.792,-1.935c2.622,-7.739 -1.343,-17.008 -9.693,-19.245c-0.903,-11.338 -8.87,-19.115 -17.867,-20.442c-10.298,-1.519 -19.733,5.023 -22.872,15.422c-3.784,-1.34 -7.471,-1.177 -10.945,0.853c-1.576,0.729 -3.018,1.805 -4.312,3.22c-1.9,2.077 -3.134,4.7 -3.637,7.465c-0.745,0.117 -1.477,0.235 -2.167,0.482c-4.023,1.443 -6.562,4.413 -7.258,8.886c-0.434,2.785 0.441,5.564 0.929,6.687c1.927,4.436 6.396,6.952 10.936,6.286c0.226,-0.033 0.554,0.069 0.749,0.232c0.24,7.091 3.683,13.362 8.848,16.944c8.287,5.748 18.949,3.977 25.675,-3.905c2.882,2.948 6.312,4.38 10.342,3.86c4.006,-0.517 7.117,-2.728 9.387,-6.322c1.048,0.282 2.043,0.689 3.071,0.801c4.025,0.44 7.294,-1.161 9.692,-4.78c0.918,-1.385 1.786,-3.181 1.786,-6.328c0,-3.245 -1.288,-6.2 -3.456,-8.181z" fill="#c7ede6"></path><path d="M76.972,48.416c0,0 11.643,0 11.714,0c2.689,0 4.868,-2.18 4.868,-4.869c0,-2.346 -1.659,-4.303 -3.868,-4.765c0.025,-0.205 0.043,-0.413 0.043,-0.625c0,-2.785 -2.257,-5.042 -5.042,-5.042c-1.644,0 -3.1,0.791 -4.02,2.008c-0.235,-3.1 -3.004,-5.491 -6.244,-5.095c-2.369,0.29 -4.328,2.121 -4.764,4.467c-0.14,0.752 -0.125,1.483 0.014,2.168c-0.635,-0.684 -1.539,-1.115 -2.546,-1.115c-1.843,0 -3.347,1.435 -3.466,3.248c-0.837,-0.185 -1.747,-0.173 -2.706,0.187c-1.832,0.688 -3.137,2.413 -3.214,4.369c-0.108,2.778 2.111,5.064 4.864,5.064c0.209,0 0.944,0 1.114,0h10.109" fill="#fdfcef"></path><path d="M88.686,48.916h-11.714c-0.276,0 -0.5,-0.224 -0.5,-0.5c0,-0.276 0.224,-0.5 0.5,-0.5h11.714c2.409,0 4.369,-1.96 4.369,-4.369c0,-2.057 -1.459,-3.855 -3.47,-4.275c-0.255,-0.053 -0.426,-0.292 -0.394,-0.551c0.023,-0.185 0.039,-0.373 0.039,-0.564c0,-2.505 -2.038,-4.542 -4.542,-4.542c-1.432,0 -2.752,0.66 -3.622,1.81c-0.125,0.167 -0.339,0.241 -0.54,0.178c-0.199,-0.059 -0.342,-0.234 -0.357,-0.441c-0.104,-1.372 -0.775,-2.659 -1.842,-3.533c-1.078,-0.883 -2.443,-1.275 -3.843,-1.104c-2.156,0.264 -3.938,1.934 -4.333,4.062c-0.124,0.665 -0.119,1.331 0.012,1.978c0.045,0.219 -0.062,0.442 -0.261,0.544c-0.199,0.103 -0.443,0.06 -0.595,-0.104c-0.572,-0.616 -1.346,-0.955 -2.18,-0.955c-1.561,0 -2.864,1.221 -2.967,2.78c-0.01,0.146 -0.083,0.28 -0.199,0.367c-0.117,0.087 -0.267,0.119 -0.408,0.088c-0.837,-0.185 -1.629,-0.131 -2.422,0.167c-1.661,0.623 -2.822,2.199 -2.89,3.92c-0.047,1.202 0.385,2.34 1.216,3.204c0.832,0.864 1.95,1.34 3.148,1.34h11.223c0.276,0 0.5,0.224 0.5,0.5c0,0.276 -0.224,0.5 -0.5,0.5h-11.222c-1.474,0 -2.848,-0.585 -3.869,-1.647c-1.021,-1.062 -1.552,-2.46 -1.495,-3.936c0.083,-2.118 1.504,-4.054 3.537,-4.817c0.798,-0.298 1.623,-0.398 2.457,-0.298c0.376,-1.815 1.991,-3.168 3.891,-3.168c0.681,0 1.347,0.178 1.934,0.506c0,-0.382 0.035,-0.767 0.106,-1.151c0.475,-2.553 2.611,-4.556 5.195,-4.872c1.672,-0.208 3.307,0.265 4.598,1.323c0.999,0.819 1.708,1.941 2.03,3.178c1.008,-0.911 2.309,-1.417 3.697,-1.417c3.056,0 5.542,2.486 5.542,5.542c0,0.083 -0.002,0.165 -0.007,0.246c2.245,0.67 3.832,2.767 3.832,5.144c0,2.959 -2.408,5.367 -5.368,5.367z" fill="#472b29"></path><path d="M72.723,38.919c-1.801,-0.118 -3.351,1.126 -3.462,2.778c-0.014,0.205 -0.005,0.407 0.025,0.604c-0.347,-0.392 -0.862,-0.659 -1.452,-0.697c-1.08,-0.071 -2.013,0.643 -2.149,1.613c-0.197,-0.054 -0.401,-0.09 -0.614,-0.104c-1.576,-0.103 -2.932,0.985 -3.029,2.431" fill="#fdfcef"></path><path d="M62.043,45.793c-0.006,0 -0.012,0 -0.017,0c-0.138,-0.009 -0.242,-0.128 -0.233,-0.266c0.106,-1.582 1.575,-2.783 3.295,-2.664c0.134,0.009 0.27,0.026 0.406,0.052c0.274,-0.963 1.261,-1.628 2.356,-1.562c0.423,0.028 0.82,0.159 1.158,0.38c0.001,-0.018 0.002,-0.036 0.003,-0.053c0.12,-1.787 1.785,-3.13 3.728,-3.011c0.138,0.009 0.242,0.128 0.233,0.266c-0.009,0.137 -0.116,0.241 -0.266,0.233c-1.659,-0.116 -3.095,1.033 -3.196,2.545c-0.012,0.183 -0.004,0.368 0.023,0.549c0.017,0.11 -0.041,0.217 -0.141,0.264c-0.099,0.046 -0.219,0.023 -0.293,-0.061c-0.322,-0.363 -0.777,-0.581 -1.281,-0.614c-0.935,-0.065 -1.768,0.553 -1.885,1.398c-0.01,0.071 -0.05,0.135 -0.11,0.174c-0.06,0.039 -0.135,0.05 -0.204,0.032c-0.188,-0.052 -0.378,-0.084 -0.564,-0.096c-1.427,-0.088 -2.675,0.892 -2.764,2.198c-0.008,0.135 -0.118,0.236 -0.248,0.236z" fill="#472b29"></path><path d="M90.657,39.353c-1.692,-0.798 -3.649,-0.233 -4.371,1.262c-0.09,0.186 -0.156,0.377 -0.2,0.571" fill="#fdfcef"></path><path d="M86.086,41.436c-0.018,0 -0.037,-0.002 -0.056,-0.006c-0.135,-0.031 -0.219,-0.165 -0.188,-0.299c0.05,-0.217 0.123,-0.427 0.219,-0.624c0.781,-1.615 2.891,-2.232 4.702,-1.379c0.125,0.059 0.179,0.208 0.12,0.333c-0.059,0.125 -0.209,0.178 -0.333,0.12c-1.567,-0.738 -3.378,-0.225 -4.039,1.145c-0.079,0.164 -0.14,0.338 -0.182,0.518c-0.026,0.113 -0.129,0.192 -0.243,0.192z" fill="#472b29"></path><path d="M71.408,22h-9.989c-0.276,0 -0.5,-0.224 -0.5,-0.5c0,-0.276 0.224,-0.5 0.5,-0.5h9.989c0.276,0 0.5,0.224 0.5,0.5c0,0.276 -0.224,0.5 -0.5,0.5zM74.277,22h-1.44c-0.276,0 -0.5,-0.224 -0.5,-0.5c0,-0.276 0.224,-0.5 0.5,-0.5h1.44c0.276,0 0.5,0.224 0.5,0.5c0,0.276 -0.224,0.5 -0.5,0.5zM78.315,22h-2.536c-0.276,0 -0.5,-0.224 -0.5,-0.5c0,-0.276 0.224,-0.5 0.5,-0.5h2.536c0.276,0 0.5,0.224 0.5,0.5c0,0.276 -0.224,0.5 -0.5,0.5zM76.297,18h-9.577c-0.276,0 -0.5,-0.224 -0.5,-0.5c0,-0.276 0.224,-0.5 0.5,-0.5h9.577c0.276,0 0.5,0.224 0.5,0.5c0,0.276 -0.223,0.5 -0.5,0.5zM64.996,18h-0.578c-0.276,0 -0.5,-0.224 -0.5,-0.5c0,-0.276 0.224,-0.5 0.5,-0.5h0.578c0.276,0 0.5,0.224 0.5,0.5c0,0.276 -0.224,0.5 -0.5,0.5zM62.629,18h-1.45c-0.276,0 -0.5,-0.224 -0.5,-0.5c0,-0.276 0.224,-0.5 0.5,-0.5h1.45c0.276,0 0.5,0.224 0.5,0.5c0,0.276 -0.224,0.5 -0.5,0.5z" fill="#ffffff"></path><g fill="#ffffff"><path d="M73.744,20h-5.007c-0.276,0 -0.5,-0.224 -0.5,-0.5c0,-0.276 0.224,-0.5 0.5,-0.5h5.007c0.276,0 0.5,0.224 0.5,0.5c0,0.276 -0.223,0.5 -0.5,0.5z"></path></g><g fill="#ffffff"><path d="M73.744,18h-1.252c-0.276,0 -0.5,-0.224 -0.5,-0.5c0,-0.276 0.224,-0.5 0.5,-0.5h1.252c0.276,0 0.5,0.224 0.5,0.5c0,0.276 -0.223,0.5 -0.5,0.5z"></path></g><g fill="#ffffff"><path d="M67.288,20h-1.751c-0.276,0 -0.5,-0.224 -0.5,-0.5c0,-0.276 0.224,-0.5 0.5,-0.5h1.751c0.276,0 0.5,0.224 0.5,0.5c0,0.276 -0.223,0.5 -0.5,0.5z"></path></g><g><path d="M58.234,38.789c-0.786,0 -1.423,-0.608 -1.423,-1.359v-1.273c0,-1.893 -1.63,-3.442 -3.622,-3.442h-15.88c-1.992,0 -3.622,1.549 -3.622,3.442v2.743v0.746l0.062,27.821c2.83,0.131 3.068,1.138 6.892,1.138h27.731c3.816,0 6.938,-2.977 6.938,-6.615v-21.842c0,-0.751 -0.637,-1.359 -1.423,-1.359z" fill="#cdcbbd"></path><path d="M68.373,69.318h-27.731c-2.233,0 -3.341,-0.341 -4.32,-0.643c-0.738,-0.228 -1.436,-0.442 -2.603,-0.496c-0.368,-0.017 -0.656,-0.331 -0.657,-0.712l-0.062,-31.311c0,-2.291 1.934,-4.156 4.31,-4.156h15.88c2.376,0 4.31,1.865 4.31,4.156v1.273c0,0.356 0.329,0.645 0.735,0.645h15.654c1.163,0 2.111,0.93 2.111,2.073v21.843c-0.001,4.04 -3.422,7.328 -7.627,7.328zM34.436,66.801c0.963,0.101 1.629,0.305 2.277,0.505c0.932,0.287 1.896,0.584 3.929,0.584h27.731c3.446,0 6.249,-2.646 6.249,-5.9v-21.842c0,-0.356 -0.329,-0.645 -0.735,-0.645h-15.655c-1.163,0 -2.111,-0.93 -2.111,-2.073v-1.273c0,-1.504 -1.316,-2.727 -2.933,-2.727h-15.879c-1.617,0 -2.933,1.223 -2.933,2.727v3.489z" fill="#472b29"></path></g><g fill="#fdfcee"><path d="M74.107,69.206h-38.855c-0.992,0 -1.796,-0.806 -1.796,-1.801l5.686,-24.084h42.291l-5.686,24.241c0.001,0.908 -0.734,1.644 -1.64,1.644z"></path></g><g fill="#472b29"><path d="M74.107,69.906h-38.855c-1.376,0 -2.496,-1.122 -2.496,-2.5c0,-0.054 0.006,-0.108 0.019,-0.161l5.686,-24.084c0.075,-0.316 0.356,-0.54 0.681,-0.54h42.291c0.214,0 0.416,0.098 0.549,0.266c0.132,0.167 0.182,0.386 0.133,0.594l-5.669,24.169c-0.047,1.252 -1.078,2.256 -2.339,2.256zM34.159,67.478c0.037,0.573 0.514,1.028 1.094,1.028h38.855c0.519,0 0.94,-0.423 0.94,-0.944c0,-0.054 0.006,-0.107 0.019,-0.16l5.484,-23.38h-40.854z"></path></g><g><path d="M38.944,73.368c1.876,0 3.502,0 3.526,0c2.101,0 3.805,-1.667 3.805,-3.724c0,-1.794 -1.297,-3.292 -3.023,-3.645c0.02,-0.157 0.033,-0.316 0.033,-0.478c0,-2.13 -1.764,-3.857 -3.941,-3.857c-1.285,0 -2.423,0.605 -3.142,1.536c-0.184,-2.371 -2.348,-4.2 -4.88,-3.897c-1.851,0.222 -3.383,1.622 -3.723,3.417c-0.109,0.576 -0.098,1.134 0.011,1.659c-0.496,-0.523 -1.203,-0.853 -1.99,-0.853c-1.44,0 -2.616,1.097 -2.709,2.484c-0.654,-0.142 -1.365,-0.132 -2.115,0.143c-1.432,0.526 -2.452,1.846 -2.512,3.342c-0.085,2.125 1.65,3.873 3.802,3.873c0.163,0 0.738,0 0.87,0h7.901M32.493,73.368h0.358" fill="#fdfcef"></path><path d="M42.47,73.868h-3.526c-0.276,0 -0.5,-0.224 -0.5,-0.5c0,-0.276 0.224,-0.5 0.5,-0.5h3.526c1.822,0 3.305,-1.446 3.305,-3.224c0,-1.517 -1.103,-2.844 -2.623,-3.155c-0.256,-0.052 -0.429,-0.293 -0.396,-0.553c0.018,-0.137 0.03,-0.274 0.03,-0.416c0,-1.851 -1.543,-3.357 -3.441,-3.357c-1.087,0 -2.088,0.489 -2.747,1.342c-0.126,0.164 -0.34,0.232 -0.539,0.173c-0.198,-0.059 -0.339,-0.234 -0.355,-0.44c-0.079,-1.014 -0.563,-1.934 -1.363,-2.591c-0.825,-0.677 -1.878,-0.982 -2.959,-0.848c-1.639,0.196 -2.992,1.436 -3.292,3.014c-0.094,0.492 -0.09,0.984 0.009,1.464c0.045,0.219 -0.06,0.441 -0.258,0.545c-0.197,0.102 -0.44,0.064 -0.594,-0.1c-0.426,-0.449 -1.003,-0.696 -1.627,-0.696c-1.163,0 -2.134,0.886 -2.21,2.018c-0.01,0.145 -0.082,0.278 -0.198,0.366c-0.116,0.087 -0.264,0.12 -0.407,0.089c-0.634,-0.138 -1.234,-0.097 -1.836,0.124c-1.256,0.461 -2.134,1.624 -2.185,2.893c-0.035,0.871 0.281,1.699 0.891,2.333c0.632,0.658 1.488,1.02 2.412,1.02h8.771c0.276,0 0.5,0.224 0.5,0.5c0,0.276 -0.224,0.5 -0.5,0.5h-8.771c-1.181,0 -2.323,-0.484 -3.133,-1.327c-0.799,-0.832 -1.214,-1.92 -1.168,-3.066c0.066,-1.668 1.207,-3.192 2.839,-3.791c0.607,-0.224 1.236,-0.304 1.872,-0.244c0.344,-1.39 1.624,-2.414 3.124,-2.414c0.49,0 0.971,0.112 1.406,0.32c0.009,-0.24 0.037,-0.48 0.082,-0.72c0.379,-2.001 2.088,-3.573 4.155,-3.82c1.359,-0.161 2.675,0.217 3.712,1.068c0.744,0.61 1.272,1.402 1.54,2.29c0.788,-0.645 1.778,-1.001 2.83,-1.001c2.449,0 4.441,1.955 4.441,4.357c0,0.034 0,0.067 -0.001,0.101c1.757,0.553 2.991,2.18 2.991,4.022c-0.003,2.329 -1.934,4.224 -4.307,4.224zM32.851,73.868h-0.358c-0.276,0 -0.5,-0.224 -0.5,-0.5c0,-0.276 0.224,-0.5 0.5,-0.5h0.358c0.276,0 0.5,0.224 0.5,0.5c0,0.276 -0.224,0.5 -0.5,0.5z" fill="#472b29"></path><g fill="#472b29"><path d="M40.769,68.088c-0.018,0 -0.036,-0.002 -0.055,-0.006c-0.135,-0.03 -0.219,-0.164 -0.189,-0.299c0.037,-0.165 0.094,-0.325 0.169,-0.477c0.602,-1.219 2.263,-1.671 3.708,-1.003c0.125,0.058 0.18,0.207 0.122,0.332c-0.058,0.125 -0.207,0.18 -0.332,0.122c-1.197,-0.554 -2.566,-0.208 -3.05,0.771c-0.057,0.116 -0.101,0.239 -0.129,0.365c-0.026,0.116 -0.129,0.195 -0.244,0.195z"></path></g><g fill="#472b29"><path d="M35.631,73.868h-1.103c-0.276,0 -0.5,-0.224 -0.5,-0.5c0,-0.276 0.224,-0.5 0.5,-0.5h1.103c0.276,0 0.5,0.224 0.5,0.5c0,0.276 -0.223,0.5 -0.5,0.5z"></path></g></g><g fill="#ffffff"><path d="M18.448,48h-9.99c-0.276,0 -0.5,-0.224 -0.5,-0.5c0,-0.276 0.224,-0.5 0.5,-0.5h9.989c0.276,0 0.5,0.224 0.5,0.5c0,0.276 -0.223,0.5 -0.499,0.5zM21.317,48h-1.439c-0.276,0 -0.5,-0.224 -0.5,-0.5c0,-0.276 0.224,-0.5 0.5,-0.5h1.439c0.276,0 0.5,0.224 0.5,0.5c0,0.276 -0.224,0.5 -0.5,0.5zM25.355,48h-2.536c-0.276,0 -0.5,-0.224 -0.5,-0.5c0,-0.276 0.224,-0.5 0.5,-0.5h2.536c0.276,0 0.5,0.224 0.5,0.5c0,0.276 -0.224,0.5 -0.5,0.5zM25.355,50h-9.577c-0.276,0 -0.5,-0.224 -0.5,-0.5c0,-0.276 0.224,-0.5 0.5,-0.5h9.577c0.276,0 0.5,0.224 0.5,0.5c0,0.276 -0.224,0.5 -0.5,0.5zM14.054,50h-0.578c-0.276,0 -0.5,-0.224 -0.5,-0.5c0,-0.276 0.224,-0.5 0.5,-0.5h0.578c0.276,0 0.5,0.224 0.5,0.5c0,0.276 -0.224,0.5 -0.5,0.5zM11.686,50h-1.45c-0.276,0 -0.5,-0.224 -0.5,-0.5c0,-0.276 0.224,-0.5 0.5,-0.5h1.45c0.276,0 0.5,0.224 0.5,0.5c0,0.276 -0.223,0.5 -0.5,0.5zM20.785,46h-5.007c-0.276,0 -0.5,-0.224 -0.5,-0.5c0,-0.276 0.224,-0.5 0.5,-0.5h5.007c0.276,0 0.5,0.224 0.5,0.5c0,0.276 -0.224,0.5 -0.5,0.5zM20.785,44h-1.252c-0.276,0 -0.5,-0.224 -0.5,-0.5c0,-0.276 0.224,-0.5 0.5,-0.5h1.252c0.276,0 0.5,0.224 0.5,0.5c0,0.276 -0.224,0.5 -0.5,0.5zM17.53,52h-1.751c-0.276,0 -0.5,-0.224 -0.5,-0.5c0,-0.276 0.224,-0.5 0.5,-0.5h1.751c0.276,0 0.5,0.224 0.5,0.5c0,0.276 -0.224,0.5 -0.5,0.5z"></path></g><g fill="#472b29"><path d="M47.5,37h-10c-0.276,0 -0.5,-0.224 -0.5,-0.5c0,-0.276 0.224,-0.5 0.5,-0.5h10c0.276,0 0.5,0.224 0.5,0.5c0,0.276 -0.224,0.5 -0.5,0.5z"></path></g><g fill="#472b29"><path d="M53.5,37h-3c-0.276,0 -0.5,-0.224 -0.5,-0.5c0,-0.276 0.224,-0.5 0.5,-0.5h3c0.276,0 0.5,0.224 0.5,0.5c0,0.276 -0.224,0.5 -0.5,0.5z"></path></g><g fill="#472b29"><path d="M56.5,55h-14c-0.154,0 -0.299,-0.071 -0.394,-0.192c-0.095,-0.121 -0.128,-0.279 -0.091,-0.429l1.5,-6c0.056,-0.223 0.256,-0.379 0.485,-0.379h14c0.154,0 0.299,0.071 0.394,0.192c0.095,0.121 0.128,0.279 0.091,0.429l-1.5,6c-0.056,0.223 -0.256,0.379 -0.485,0.379zM43.141,54h12.969l1.25,-5h-12.969z"></path></g></g></g></svg>